<svg version="1.1" xmlns="http://www.w3.org/2000/svg" xmlns:xlink="http://www.w3.org/1999/xlink" x="0px" y="0px" width="64px"
	 height="64px" viewBox="0 0 64 64" style="enable-background:new 0 0 64 64;" xml:space="preserve">
<style type="text/css">
	.fandom_drie{fill:#BE9148;}
	.fandom_vier{fill:#FFC865;}
	.fandom_vijf{fill:#018273;}
	.fandom_zes{fill:#00B3AA;}
	.st0{fill:#231F20;}
	.st1{fill:none;}
	.st2{fill:#6BC4D2;}
	.st3{fill:#508D9B;}
	.st4{fill:#FF786E;}
	.st5{fill:#8579A3;}
	.st6{fill:#BE5652;}
	.st7{fill:#685683;}
	.st8{fill:#EFEAE0;}
	.st9{fill:#AA9991;}
	.st10{fill:#3A3A3A;}
	.st11{fill:#666666;}
	.st12{fill:#4D4D4D;}
	.st13{fill:#CCCCCC;}
	.st14{fill:#808080;}
	.st15{fill:#644638;}
	.st16{fill:#4B322A;}
	.st17{fill:#FFFAFA;}
</style>
<g id="LABELS">
</g>
<g id="Uploaded to svgrepo.com">
	<g>
		<g>
			<path class="fandom_vier" d="M32,7C18.193,7,7,18.193,7,32h50C57,18.193,45.807,7,32,7z"/>
			<path class="fandom_drie" d="M32,57c13.807,0,25-11.193,25-25H7C7,45.807,18.193,57,32,57z"/>
		</g>
		<g>
			<path class="fandom_zes" d="M57,21.314L46.344,10.344c-0.228-0.228-0.491-0.418-0.78-0.562l-7.353-3.677
				C38.072,6.036,37.919,6,37.764,6H26.236c-0.155,0-0.308,0.036-0.447,0.106l-0.562,0.281c-0.196,2.753,0.063,5.537,0.772,8.204
				c0.727,2.732,1.911,5.318,2.835,7.991c0.076,0.221,0.15,0.469,0.052,0.681c-0.082,0.177-0.268,0.285-0.458,0.331
				c-0.633,0.156-1.249-0.248-1.849-0.504c-0.6-0.256-1.466-0.274-1.728,0.323c-0.093,0.212-0.081,0.455-0.054,0.685
				c0.222,1.878,1.227,3.505,2.195,5.083c0.515,0.84,3.017,4.009,1.382,4.708c-0.26,0.111-0.55,0.124-0.832,0.119
				c-1.009-0.016-2.014-0.235-2.938-0.639c-0.355-0.155-0.817-0.32-1.084-0.04c-0.095,0.099-0.138,0.235-0.173,0.367
				c-0.333,1.271,0.002,2.556,0.408,3.767c1.05,3.132,2.512,6.126,4.335,8.881c1.416,2.139,3.124,4.373,2.986,6.934
				c-0.013,0.241-0.055,0.482-0.113,0.72H45c0.552,0,1-0.448,1-1V22.383c0.018-0.192,0.147-0.392,0.257-0.551
				s0.333-0.256,0.501-0.163c0.141,0.078,0.194,0.25,0.242,0.404c0.159,0.508,0.401,0.989,0.714,1.419
				c0.28,0.385,0.847,0.742,1.184,0.405c0.156-0.156,0.177-0.399,0.263-0.602c0.086-0.204,0.335-0.388,0.515-0.26
				c0.078,0.055,0.114,0.151,0.146,0.241c0.568,1.593,1.352,3.105,2.299,4.507L57,22.728C57.391,22.337,57.391,21.704,57,21.314z"/>
			<path class="fandom_vijf" d="M38,6l-5.168,7.752c-0.396,0.594-1.268,0.594-1.664,0L26,6H38z M49.676,23.035
				c-0.181-0.128-0.429,0.057-0.515,0.26c-0.086,0.204-0.107,0.446-0.263,0.602c-0.337,0.337-0.904-0.02-1.184-0.405
				c-0.313-0.43-0.555-0.912-0.714-1.419c-0.048-0.154-0.101-0.327-0.242-0.404c-0.169-0.093-0.392,0.005-0.501,0.163
				S46.018,22.192,46,22.383C45.883,23.601,46,26,46,26l3.532,3c0.391,0.391,1.024,0.391,1.414,0l1.227-1.135
				c-0.972-1.424-1.772-2.965-2.351-4.589C49.79,23.187,49.754,23.091,49.676,23.035z M28.088,46.346
				c-1.823-2.755-3.285-5.749-4.335-8.881c-0.406-1.211-0.741-2.497-0.408-3.767c0.035-0.132,0.079-0.268,0.173-0.367
				c0.267-0.28,0.73-0.115,1.084,0.04c0.924,0.404,1.93,0.623,2.938,0.639c0.282,0.005,0.573-0.008,0.832-0.119
				c1.635-0.7-0.867-3.868-1.382-4.708c-0.968-1.578-1.973-3.206-2.195-5.083c-0.027-0.23-0.039-0.472,0.054-0.685
				c0.262-0.597,1.128-0.579,1.728-0.323c0.6,0.256,1.216,0.66,1.849,0.504c0.189-0.047,0.376-0.155,0.458-0.331
				c0.098-0.212,0.025-0.46-0.052-0.681c-0.923-2.672-2.108-5.258-2.835-7.991c-0.709-2.667-0.968-5.452-0.772-8.204l-6.791,3.395
				c-0.289,0.144-0.552,0.334-0.78,0.562L7,21.314c-0.39,0.391-0.39,1.024,0,1.414L13.053,29c0.391,0.391,1.024,0.391,1.414,0
				L18,25.559V53c0,0.552,0.448,1,1,1h11.961c0.058-0.237,0.1-0.479,0.113-0.72C31.212,50.719,29.503,48.485,28.088,46.346z M43,19
				h-6c-0.552,0-1,0.448-1,1v7c0,1.105,0.895,2,2,2h4c1.105,0,2-0.895,2-2v-7C44,19.448,43.552,19,43,19z"/>
		</g>
	</g>
</g>
</svg>